<?xml version="1.0" standalone="no"?>
<!DOCTYPE svg PUBLIC "-//W3C//DTD SVG 20010904//EN"
 "http://www.w3.org/TR/2001/REC-SVG-20010904/DTD/svg10.dtd">
<svg version="1.0" xmlns="http://www.w3.org/2000/svg"
 width="260.000000pt" height="260.000000pt" viewBox="0 0 260.000000 260.000000"
 preserveAspectRatio="xMidYMid meet">
<metadata>
Created by potrace 1.14, written by Peter Selinger 2001-2017
</metadata>
<g transform="translate(0.000000,260.000000) scale(0.100000,-0.100000)"
fill="#000000" stroke="none">
<path d="M1132 2590 c-301 -43 -565 -179 -775 -400 -171 -180 -278 -385 -333
-641 -26 -118 -26 -380 0 -498 59 -273 167 -474 360 -667 193 -193 394 -301
667 -360 118 -26 380 -26 498 0 273 59 474 167 667 360 193 193 301 394 360
667 14 62 18 127 18 249 0 122 -4 187 -18 249 -59 273 -167 474 -360 667 -190
189 -384 296 -646 355 -98 22 -340 33 -438 19z m-74 -415 c17 0 32 2 32 5 0
11 84 9 97 -2 10 -8 16 -9 21 -1 4 6 25 11 46 11 26 0 34 -3 25 -9 -8 -5 -9
-9 -4 -9 6 0 17 4 25 10 9 6 17 5 22 -3 6 -9 8 -9 8 1 0 7 4 10 10 7 18 -11
51 -14 44 -4 -6 10 43 5 54 -5 2 -3 13 -1 23 5 12 6 19 6 19 0 0 -5 13 -4 30
2 20 8 33 8 38 2 10 -14 35 -18 27 -5 -9 14 27 9 37 -4 4 -6 13 -5 22 3 11 9
20 10 35 1 14 -7 21 -7 21 -1 0 6 7 8 16 4 20 -7 51 -11 117 -12 l47 -1 0
-109 0 -109 -62 -6 c-35 -3 -178 -8 -318 -10 -140 -2 -273 -9 -295 -14 -22 -6
-50 -23 -63 -38 -13 -14 -26 -23 -29 -20 -4 3 2 12 12 20 18 13 32 51 14 40
-5 -3 -7 -10 -4 -15 4 -5 -5 -14 -18 -20 -23 -10 -33 -39 -14 -39 5 0 6 -8 3
-17 -10 -26 -14 -224 -5 -255 4 -15 4 -30 -1 -33 -5 -3 -8 -14 -7 -25 1 -10 5
-16 9 -14 5 3 5 11 2 17 -5 8 -3 8 6 0 27 -25 19 -49 -12 -44 -5 0 -8 -3 -8
-9 0 -5 13 -7 30 -4 22 5 31 2 36 -10 3 -9 10 -13 15 -10 5 3 9 1 9 -3 0 -12
0 -12 290 -16 140 -2 276 -8 303 -12 l47 -7 0 -109 0 -109 -57 -2 c-32 0 -160
-2 -284 -3 -124 -1 -231 -5 -238 -9 -6 -4 -11 -3 -11 2 0 5 -11 7 -25 4 -14
-2 -25 -10 -25 -18 0 -8 -6 -11 -15 -8 -8 4 -15 1 -15 -6 0 -6 -5 -8 -12 -4
-7 5 -9 2 -5 -9 3 -8 -1 -21 -9 -27 -13 -12 -18 -7 -15 13 1 5 -4 5 -10 2 -8
-5 -8 -10 0 -18 12 -12 15 -50 4 -60 -4 -4 -7 -69 -8 -145 -1 -106 3 -144 15
-170 9 -18 19 -29 23 -26 4 4 7 0 7 -10 0 -9 6 -16 13 -15 19 3 77 -22 77 -33
0 -7 5 -6 14 1 10 8 16 9 21 1 3 -5 11 -10 16 -10 6 0 7 5 4 10 -9 14 19 12
34 -3 10 -9 15 -9 18 0 3 9 12 9 29 3 17 -7 23 -7 19 0 -3 6 -1 10 4 10 6 0
11 -6 11 -12 0 -10 2 -10 8 -1 5 7 13 9 21 3 8 -4 24 -4 37 0 15 6 24 5 26 -2
3 -8 10 -8 24 0 13 7 34 8 57 2 23 -5 39 -4 43 2 4 6 10 6 17 -1 7 -7 14 -7
24 0 9 9 17 8 28 -1 10 -9 15 -9 15 -1 0 6 7 11 15 11 8 0 15 -3 15 -7 0 -5
35 -9 77 -11 43 -2 79 -5 81 -7 9 -8 14 -127 8 -168 l-7 -44 -72 -7 c-129 -13
-197 -14 -197 -4 0 5 -5 6 -10 3 -18 -11 -140 -12 -140 -1 0 6 -5 5 -12 -2
-15 -15 -32 -16 -23 -2 8 13 -8 13 -22 -1 -8 -8 -17 -8 -31 0 -12 6 -23 8 -25
4 -6 -10 -59 -9 -75 1 -6 4 -20 3 -29 -2 -10 -5 -31 -7 -48 -5 -16 2 -34 4
-40 4 -5 1 -19 -2 -29 -7 -15 -6 -17 -4 -11 7 8 12 6 12 -8 0 -14 -11 -17 -11
-17 0 0 9 -3 10 -8 4 -8 -11 -32 -13 -47 -3 -6 4 -17 3 -25 -2 -9 -5 -19 -5
-26 1 -7 5 -16 9 -20 8 -5 -1 -34 -1 -66 0 l-56 1 -9 63 c-11 78 -9 1587 2
1645 l8 42 61 1 c33 1 72 4 86 8 14 4 27 5 30 2 3 -3 20 -6 38 -6z"/>
<path d="M1163 1933 c9 -2 25 -2 35 0 9 3 1 5 -18 5 -19 0 -27 -2 -17 -5z"/>
<path d="M1081 1904 c0 -11 3 -14 6 -6 3 7 2 16 -1 19 -3 4 -6 -2 -5 -13z"/>
<path d="M1107 1436 c-4 -10 1 -12 14 -9 23 6 24 9 5 16 -8 3 -17 0 -19 -7z"/>
<path d="M1081 1185 c0 -5 6 -19 14 -29 8 -11 15 -15 15 -10 0 6 -7 19 -15 30
-8 10 -14 15 -14 9z"/>
<path d="M1131 661 c-10 -6 -10 -10 -1 -16 13 -8 24 -1 19 14 -3 6 -10 7 -18
2z"/>
</g>
</svg>
