<svg width="22" height="22" viewBox="0 0 22 22" fill="none" xmlns="http://www.w3.org/2000/svg">
<path d="M17.875 2.75C16.3556 2.75 15.125 3.98062 15.125 5.5H13.75V6.875H17.875V5.5H16.5C16.5 4.68119 17.0562 4.125 17.875 4.125C18.6938 4.125 19.25 4.68119 19.25 5.5V9.625H0.6875V11H1.50425L2.55612 16.2209V16.2422C2.63597 16.5927 2.80427 16.917 3.04496 17.184C3.28566 17.4511 3.59074 17.652 3.93112 17.7677L3.4375 19.25H4.8125L5.2635 17.875H16.7365L17.1875 19.25H18.5625L18.0682 17.7677C18.788 17.5477 19.3469 16.9703 19.5078 16.2422V16.2209L20.4964 11H21.3125V9.625H20.625V5.5C20.625 3.98062 19.3944 2.75 17.875 2.75ZM2.90056 11H19.1208L18.1541 15.9631C18.0737 16.2607 17.8214 16.5 17.4666 16.5H4.598C4.2295 16.5 3.97994 16.2559 3.9105 15.9411L2.90056 11Z" fill="#1AA090"/>
</svg>
