<svg width="22" height="22" viewBox="0 0 22 22" fill="none" xmlns="http://www.w3.org/2000/svg">
<path d="M4.125 4.125C2.99406 4.125 2.0625 5.05656 2.0625 6.1875V10.8494C1.64312 11.2283 1.375 11.7707 1.375 12.375V18.5625H4.8125V17.1875H17.1875V18.5625H20.625V12.375C20.625 11.7707 20.3569 11.2283 19.9375 10.8494V6.1875C19.9375 5.05656 19.0059 4.125 17.875 4.125H4.125ZM4.125 5.5H17.875C18.2566 5.5 18.5625 5.80594 18.5625 6.1875V10.3125H17.1875V9.625C17.1875 8.49406 16.2559 7.5625 15.125 7.5625H12.375C11.8484 7.5625 11.3651 7.76875 11 8.09944C10.6242 7.75605 10.1341 7.56468 9.625 7.5625H6.875C5.74406 7.5625 4.8125 8.49406 4.8125 9.625V10.3125H3.4375V6.1875C3.4375 5.80594 3.74344 5.5 4.125 5.5ZM6.875 8.9375H9.625C10.0066 8.9375 10.3125 9.24344 10.3125 9.625V10.3125H6.1875V9.625C6.1875 9.24344 6.49344 8.9375 6.875 8.9375ZM12.375 8.9375H15.125C15.5066 8.9375 15.8125 9.24344 15.8125 9.625V10.3125H11.6875V9.625C11.6875 9.24344 11.9934 8.9375 12.375 8.9375ZM3.4375 11.6875H18.5625C18.9441 11.6875 19.25 11.9934 19.25 12.375V17.1875H18.5625V15.8125H3.4375V17.1875H2.75V12.375C2.75 11.9934 3.05594 11.6875 3.4375 11.6875Z" fill="#1AA090"/>
</svg>
