<svg width="22" height="22" viewBox="0 0 22 22" fill="none" xmlns="http://www.w3.org/2000/svg">
<path d="M3.4375 3.4375V8.25H4.8125V13.75H3.4375V18.5625H8.25V17.1875H13.75V18.5625H18.5625V13.75H17.1875V8.25H18.5625V3.4375H13.75V4.8125H8.25V3.4375H3.4375ZM4.8125 4.8125H6.875V6.875H4.8125V4.8125ZM15.125 4.8125H17.1875V6.875H15.125V4.8125ZM8.25 6.1875H13.75V8.25H15.8125V13.75H13.75V15.8125H8.25V13.75H6.1875V8.25H8.25V6.1875ZM4.8125 15.125H6.875V17.1875H4.8125V15.125ZM15.125 15.125H17.1875V17.1875H15.125V15.125Z" fill="#1AA090"/>
</svg>
