<svg width="147" height="44" viewBox="0 0 147 44" fill="none" xmlns="http://www.w3.org/2000/svg">
<path d="M1.86231 0.357483L1.8623 43.6589" stroke="#83898F" stroke-width="3"/>
<path d="M21.1852 16.1623H26.3653V18.1222H18.7456V6.28192H21.1852V16.1623Z" fill="#83898F"/>
<path d="M41.2811 15.6826H37.0036L36.1904 18.1222H33.5963L38.0039 6.28192H40.2646L44.6965 18.1222H42.1024L41.2811 15.6826ZM37.6623 13.7065H40.6224L39.1342 9.27451L37.6623 13.7065Z" fill="#83898F"/>
<path d="M56.205 15.1865L58.8886 6.28192H61.6047L57.4817 18.1222H54.9364L50.8297 6.28192H53.5377L56.205 15.1865Z" fill="#83898F"/>
<path d="M76.5123 12.9908H71.8283V16.1623H77.3255V18.1222H69.3886V6.28192H77.3092V8.25801H71.8283V11.0798H76.5123V12.9908Z" fill="#83898F"/>
<path d="M95.0468 18.1222H92.6072L87.8581 10.3317V18.1222H85.4185V6.28192H87.8581L92.6153 14.0887V6.28192H95.0468V18.1222Z" fill="#83898F"/>
<path d="M103.839 18.1222V6.28192H107.482C108.523 6.28192 109.453 6.51775 110.272 6.98941C111.096 7.45564 111.738 8.12247 112.199 8.98989C112.66 9.85188 112.89 10.8331 112.89 11.9337V12.4785C112.89 13.5791 112.662 14.5576 112.207 15.4142C111.757 16.2708 111.12 16.9349 110.296 17.4065C109.472 17.8782 108.542 18.1167 107.507 18.1222H103.839ZM106.279 8.25801V16.1623H107.458C108.412 16.1623 109.141 15.8506 109.645 15.2272C110.15 14.6037 110.407 13.7119 110.418 12.5517V11.9256C110.418 10.722 110.169 9.81122 109.67 9.19319C109.171 8.56973 108.442 8.25801 107.482 8.25801H106.279Z" fill="#83898F"/>
<path d="M128.456 12.9908H123.772V16.1623H129.27V18.1222H121.333V6.28192H129.253V8.25801H123.772V11.0798H128.456V12.9908Z" fill="#83898F"/>
<path d="M141.746 13.7878H139.802V18.1222H137.363V6.28192H141.762C143.161 6.28192 144.24 6.59365 144.999 7.21711C145.758 7.84056 146.137 8.72153 146.137 9.86002C146.137 10.6678 145.961 11.3428 145.609 11.8849C145.262 12.4216 144.733 12.8499 144.023 13.1698L146.584 18.0083V18.1222H143.966L141.746 13.7878ZM139.802 11.8117H141.77C142.383 11.8117 142.857 11.6572 143.193 11.3482C143.529 11.0337 143.698 10.6027 143.698 10.0552C143.698 9.49678 143.538 9.05765 143.218 8.73779C142.903 8.41794 142.418 8.25801 141.762 8.25801H139.802V11.8117Z" fill="#83898F"/>
<path d="M25.4301 36.7781H21.1527L20.3395 39.2177H17.7454L22.1529 27.3775H24.4136L28.8456 39.2177H26.2515L25.4301 36.7781ZM21.8114 34.802H24.7714L23.2833 30.3701L21.8114 34.802Z" fill="#83898F"/>
<path d="M45.8025 37.7214C45.3634 38.2473 44.7426 38.6566 43.9403 38.9494C43.1379 39.2367 42.2488 39.3804 41.273 39.3804C40.2483 39.3804 39.3484 39.1581 38.5731 38.7135C37.8033 38.2636 37.2069 37.613 36.7841 36.7619C36.3666 35.9107 36.1525 34.9105 36.1416 33.7611V32.9561C36.1416 31.7742 36.3395 30.7523 36.7353 29.8903C37.1365 29.0229 37.7111 28.3615 38.4593 27.9061C39.2128 27.4453 40.0938 27.2149 41.1022 27.2149C42.5063 27.2149 43.6041 27.551 44.3957 28.2232C45.1872 28.8901 45.6561 29.8632 45.8025 31.1426H43.4279C43.3195 30.465 43.0783 29.9689 42.7042 29.6545C42.3355 29.34 41.8259 29.1828 41.1754 29.1828C40.3459 29.1828 39.7143 29.4945 39.2806 30.118C38.8469 30.7414 38.6273 31.6685 38.6219 32.8991V33.6554C38.6219 34.8969 38.8577 35.8348 39.3294 36.4691C39.8011 37.1034 40.4923 37.4206 41.4031 37.4206C42.3193 37.4206 42.9725 37.2254 43.3629 36.835V34.7939H41.1428V32.9967H45.8025V37.7214Z" fill="#83898F"/>
<path d="M61.5721 34.0864H56.8881V37.2579H62.3853V39.2177H54.4485V27.3775H62.3691V29.3536H56.8881V32.1754H61.5721V34.0864Z" fill="#83898F"/>
<path d="M80.1067 39.2177H77.667L72.9179 31.4272V39.2177H70.4783V27.3775H72.9179L77.6752 35.1842V27.3775H80.1067V39.2177Z" fill="#83898F"/>
<path d="M98.1939 35.2737C98.1018 36.5477 97.6301 37.5507 96.779 38.2826C95.9332 39.0144 94.8164 39.3804 93.4286 39.3804C91.9106 39.3804 90.7152 38.8708 89.8423 37.8516C88.9749 36.8269 88.5412 35.4228 88.5412 33.6392V32.9154C88.5412 31.7769 88.7418 30.774 89.143 29.9066C89.5442 29.0391 90.1161 28.375 90.8588 27.9142C91.607 27.448 92.4744 27.2149 93.4611 27.2149C94.8273 27.2149 95.9278 27.5808 96.7627 28.3127C97.5976 29.0446 98.0801 30.0719 98.2102 31.3947H95.7706C95.7109 30.6303 95.4968 30.0773 95.1282 29.7358C94.7649 29.3888 94.2092 29.2153 93.4611 29.2153C92.6479 29.2153 92.038 29.5081 91.6314 30.0936C91.2302 30.6737 91.0242 31.5763 91.0133 32.8016V33.6961C91.0133 34.9755 91.2058 35.9107 91.5907 36.5016C91.981 37.0926 92.5937 37.388 93.4286 37.388C94.1821 37.388 94.7432 37.2173 95.1119 36.8757C95.486 36.5287 95.7001 35.9947 95.7543 35.2737H98.1939Z" fill="#83898F"/>
<path d="M110.54 32.7121L113.004 27.3775H115.671L111.784 34.924V39.2177H109.304V34.924L105.417 27.3775H108.092L110.54 32.7121Z" fill="#83898F"/>
</svg>
