<svg width="166" height="66" viewBox="0 0 166 66" fill="none" xmlns="http://www.w3.org/2000/svg">
<path d="M16.5686 15.736C7.56398 15.736 0.236084 23.4407 0.236084 32.9083C0.236084 42.3758 7.56398 50.0805 16.5686 50.0805C25.5733 50.0805 32.9012 42.3758 32.9012 32.9083C32.9012 23.4407 25.5733 15.736 16.5686 15.736ZM25.449 40.7435C24.9522 41.2005 24.3312 41.6576 23.7102 42.0494C23.0892 42.5064 22.344 42.8329 21.5988 43.2247C20.8536 43.5512 19.9842 43.8123 19.1148 44.0082C18.2453 44.2041 17.3138 44.3346 16.3202 44.3346C14.8919 44.3346 13.5878 44.1388 12.5321 43.8123C11.4763 43.4858 10.6069 43.0288 9.92381 42.3758C9.2407 41.7882 8.7439 41.07 8.43339 40.2212C8.12289 39.3723 7.93659 38.5235 7.93659 37.5441C7.93659 36.173 8.2471 35.063 8.806 34.1488C9.36491 33.2347 10.1722 32.4512 11.1037 31.7983C10.6069 31.2759 10.2343 30.623 9.92381 29.8395C9.61331 29.1213 9.42701 28.3377 9.42701 27.4236C9.42701 26.5095 9.61331 25.5954 9.92381 24.8119C10.2343 24.0283 10.7311 23.3101 11.29 22.7225C11.911 22.1348 12.5942 21.6778 13.4015 21.3513C14.2088 21.0248 15.0782 20.8942 16.0097 20.8942C17.0654 20.8942 17.9969 21.0901 18.8043 21.4166C19.6737 21.743 20.3568 22.2001 20.9778 22.7877C21.5988 23.3754 22.0335 24.0936 22.344 24.8771C22.6545 25.6607 22.8408 26.5748 22.8408 27.5542C22.8408 28.6642 22.5303 29.6436 21.9714 30.4924C21.4125 31.3412 20.7294 32.0594 19.9221 32.7124L22.7787 35.2588C23.0271 34.9977 23.2755 34.7365 23.5239 34.41C23.7723 34.1489 24.0828 33.7571 24.4554 33.2347L28.6783 37.0218C28.2436 37.6747 27.7468 38.3276 27.1879 38.9153C26.629 39.6335 26.0701 40.2211 25.449 40.7435ZM23.8344 37.6747C23.4618 38.0665 23.0271 38.3929 22.6545 38.7194C21.9093 39.2418 20.9778 39.7641 19.9221 40.2212C18.8664 40.6782 17.6243 40.8741 16.196 40.8741C15.6992 40.8741 15.2024 40.8088 14.6435 40.6782C14.1467 40.5476 13.6499 40.3517 13.2152 40.0906C12.7805 39.8294 12.4079 39.4377 12.1594 38.9806C11.8489 38.5235 11.7248 37.9359 11.7248 37.2829C11.7248 36.3035 11.9732 35.5853 12.5321 34.9977C13.0289 34.41 13.7741 33.8877 14.7677 33.3653L15.6992 32.843L20.6673 37.1523L21.2883 36.6953L16.4444 32.4512C17.6243 31.7983 18.5558 31.08 19.239 30.2965C19.9221 29.513 20.2947 28.5989 20.2947 27.4889C20.2947 26.9012 20.1705 26.3789 19.9842 25.9219C19.7358 25.4648 19.4874 25.0077 19.0527 24.6813C18.68 24.3548 18.2453 24.0936 17.6864 23.8977C17.1896 23.7019 16.6307 23.6366 16.0097 23.6366C15.5129 23.6366 15.0161 23.7019 14.5193 23.8977C14.0225 24.0936 13.5878 24.3548 13.2152 24.6813C12.8426 25.0077 12.5321 25.4648 12.2837 25.9219C12.0353 26.3789 11.9732 26.9666 11.9732 27.5542C11.9732 28.403 12.1595 29.1212 12.5942 29.7089C13.0289 30.3618 13.5878 30.9494 14.333 31.6024L15.1403 32.3206L14.3951 32.7124C13.9604 32.9736 13.4636 33.2347 13.091 33.4959C12.6563 33.8224 12.3458 34.1488 12.0353 34.4753C11.7248 34.8671 11.4763 35.2589 11.3521 35.7159C11.1658 36.173 11.1037 36.6953 11.1037 37.2177C11.1037 37.9359 11.2279 38.5888 11.5384 39.1765C11.8489 39.7641 12.2215 40.1559 12.7184 40.5476C13.2152 40.8741 13.7741 41.2006 14.3951 41.3312C15.0161 41.527 15.6992 41.5923 16.3823 41.5923C17.8106 41.5923 19.1148 41.3311 20.2947 40.8741C21.4125 40.417 22.4061 39.8294 23.2134 39.2417C24.1449 38.5235 24.9523 37.74 25.6975 36.8259L25.0765 36.3688C24.5796 36.8912 24.207 37.283 23.8344 37.6747ZM14.7677 31.08C13.8983 30.3618 13.4015 29.7089 13.091 29.1865C12.8426 28.6642 12.7184 28.1418 12.7184 27.6195C12.7184 26.7054 13.0289 25.9218 13.5878 25.3342C14.2088 24.7466 14.954 24.4201 15.8855 24.4201C16.3202 24.4201 16.7549 24.4854 17.1275 24.616C17.5622 24.7466 17.8727 24.9424 18.2454 25.2036C18.5559 25.4648 18.8042 25.7912 18.9906 26.183C19.1769 26.5748 19.3011 27.0319 19.3011 27.5542C19.3011 28.5989 18.9906 29.4477 18.3695 30.1006C17.7485 30.7536 16.8791 31.3412 15.6992 31.9942L14.7677 31.08ZM16.9412 28.403C17.1275 28.1418 17.2517 27.8154 17.2517 27.4236C17.2517 26.5748 16.8791 26.183 16.0718 26.183C15.6992 26.183 15.4508 26.3136 15.2024 26.5095C14.954 26.7707 14.8919 27.0318 14.8919 27.4236C14.8919 27.7501 14.954 28.0112 15.0782 28.3377C15.2024 28.5989 15.5129 28.9253 15.8855 29.3171C16.3823 28.9906 16.6928 28.6642 16.9412 28.403ZM14.4572 37.1523C14.4572 37.6747 14.6435 38.0665 15.0782 38.3277C15.4508 38.5888 15.9476 38.7194 16.4444 38.7194C16.7549 38.7194 17.0654 38.7194 17.438 38.6541C17.7485 38.5888 18.059 38.5235 18.3695 38.3929L15.3266 35.6506C14.7056 36.0424 14.4572 36.5647 14.4572 37.1523Z" fill="#83898F"/>
<path d="M17.2515 0H15.8853V17.3028H17.2515V0Z" fill="#83898F"/>
<path d="M17.2515 46.6854H15.8853V65.8817H17.2515V46.6854Z" fill="#83898F"/>
<path d="M58.3 29.934C55.8736 29.934 53.6784 29.4026 51.7142 28.3396C49.7732 27.2535 48.248 25.7746 47.1389 23.9029C46.0297 22.008 45.4751 19.8821 45.4751 17.5251C45.4751 15.1681 46.0297 13.0538 47.1389 11.182C48.248 9.28718 49.7847 7.80827 51.7489 6.74531C53.713 5.65925 55.9083 5.11621 58.3346 5.11621C60.2295 5.11621 61.9625 5.43972 63.5339 6.08674C65.1052 6.71065 66.4455 7.64652 67.5546 8.89434L65.3016 11.078C63.4761 9.16008 61.2 8.20111 58.4733 8.20111C56.6708 8.20111 55.0417 8.60549 53.586 9.41427C52.1302 10.223 50.9863 11.3438 50.1544 12.7765C49.3457 14.186 48.9413 15.7689 48.9413 17.5251C48.9413 19.2813 49.3457 20.8758 50.1544 22.3084C50.9863 23.718 52.1302 24.8272 53.586 25.636C55.0417 26.4448 56.6708 26.8491 58.4733 26.8491C61.1769 26.8491 63.453 25.8786 65.3016 23.9375L67.5546 26.1212C66.4455 27.3691 65.0937 28.3165 63.4992 28.9635C61.9279 29.6105 60.1948 29.934 58.3 29.934Z" fill="#83898F"/>
<path d="M74.1631 14.3709C74.7408 13.3079 75.5958 12.4992 76.7281 11.9446C77.8604 11.39 79.2353 11.1127 80.8528 11.1127V14.3362C80.668 14.3131 80.4138 14.3016 80.0903 14.3016C78.2879 14.3016 76.8667 14.8446 75.8269 15.9307C74.8101 16.9936 74.3018 18.5188 74.3018 20.506V29.6567H70.9742V11.286H74.1631V14.3709Z" fill="#83898F"/>
<path d="M100.348 20.5754C100.348 20.8295 100.325 21.1646 100.279 21.5806H85.374C85.582 23.1981 86.2868 24.5037 87.4884 25.4973C88.7131 26.4679 90.2267 26.9531 92.0291 26.9531C94.2243 26.9531 95.9921 26.2137 97.3323 24.7348L99.1694 26.8838C98.3375 27.8543 97.2977 28.5938 96.0499 29.1022C94.8251 29.6105 93.4502 29.8647 91.9251 29.8647C89.9841 29.8647 88.2625 29.4719 86.7605 28.6862C85.2585 27.8774 84.0916 26.7567 83.2597 25.324C82.4509 23.8913 82.0465 22.2738 82.0465 20.4714C82.0465 18.6921 82.4393 17.0861 83.225 15.6534C84.0338 14.2207 85.1314 13.1115 86.5179 12.3259C87.9275 11.5171 89.5103 11.1127 91.2665 11.1127C93.0227 11.1127 94.5825 11.5171 95.9459 12.3259C97.3324 13.1115 98.4069 14.2207 99.1694 15.6534C99.9551 17.0861 100.348 18.7267 100.348 20.5754ZM91.2665 13.9203C89.6721 13.9203 88.3318 14.4056 87.2458 15.3761C86.1828 16.3466 85.5589 17.6176 85.374 19.1889H97.159C96.9742 17.6407 96.3387 16.3813 95.2526 15.4108C94.1897 14.4171 92.861 13.9203 91.2665 13.9203Z" fill="#83898F"/>
<path d="M110.111 11.1127C112.652 11.1127 114.594 11.7366 115.934 12.9844C117.297 14.2323 117.979 16.0924 117.979 18.565V29.6567H114.825V27.2304C114.27 28.0854 113.473 28.744 112.433 29.2061C111.416 29.6452 110.203 29.8647 108.793 29.8647C106.737 29.8647 105.085 29.3679 103.837 28.3743C102.612 27.3806 102 26.075 102 24.4575C102 22.8399 102.589 21.5459 103.768 20.5754C104.946 19.5817 106.818 19.0849 109.383 19.0849H114.651V18.4263C114.651 16.9936 114.235 15.896 113.403 15.1335C112.572 14.3709 111.347 13.9896 109.729 13.9896C108.643 13.9896 107.58 14.1745 106.54 14.5442C105.501 14.8908 104.623 15.3645 103.906 15.9653L102.52 13.4697C103.467 12.7071 104.599 12.1294 105.917 11.7366C107.234 11.3207 108.632 11.1127 110.111 11.1127ZM109.348 27.2997C110.619 27.2997 111.717 27.0224 112.641 26.4679C113.565 25.8902 114.235 25.0814 114.651 24.0415V21.4766H109.521C106.702 21.4766 105.293 22.424 105.293 24.3188C105.293 25.2431 105.651 25.971 106.367 26.5025C107.083 27.034 108.077 27.2997 109.348 27.2997Z" fill="#83898F"/>
<path d="M133.426 28.5822C132.941 28.9982 132.34 29.3217 131.624 29.5528C130.907 29.7607 130.168 29.8647 129.405 29.8647C127.557 29.8647 126.124 29.3679 125.107 28.3743C124.091 27.3806 123.582 25.9595 123.582 24.1109V14.0243H120.463V11.286H123.582V7.26524H126.91V11.286H132.178V14.0243H126.91V23.9722C126.91 24.9659 127.152 25.7284 127.638 26.2599C128.146 26.7914 128.862 27.0571 129.787 27.0571C130.803 27.0571 131.67 26.7683 132.386 26.1906L133.426 28.5822Z" fill="#83898F"/>
<path d="M152.403 20.5754C152.403 20.8295 152.38 21.1646 152.334 21.5806H137.429C137.637 23.1981 138.342 24.5037 139.543 25.4973C140.768 26.4679 142.282 26.9531 144.084 26.9531C146.279 26.9531 148.047 26.2137 149.387 24.7348L151.224 26.8838C150.392 27.8543 149.353 28.5938 148.105 29.1022C146.88 29.6105 145.505 29.8647 143.98 29.8647C142.039 29.8647 140.317 29.4719 138.815 28.6862C137.313 27.8774 136.146 26.7567 135.315 25.324C134.506 23.8913 134.101 22.2738 134.101 20.4714C134.101 18.6921 134.494 17.0861 135.28 15.6534C136.089 14.2207 137.186 13.1115 138.573 12.3259C139.982 11.5171 141.565 11.1127 143.321 11.1127C145.078 11.1127 146.637 11.5171 148.001 12.3259C149.387 13.1115 150.462 14.2207 151.224 15.6534C152.01 17.0861 152.403 18.7267 152.403 20.5754ZM143.321 13.9203C141.727 13.9203 140.387 14.4056 139.301 15.3761C138.238 16.3466 137.614 17.6176 137.429 19.1889H149.214C149.029 17.6407 148.394 16.3813 147.308 15.4108C146.245 14.4171 144.916 13.9203 143.321 13.9203Z" fill="#83898F"/>
<path d="M159.172 14.3709C159.75 13.3079 160.605 12.4992 161.737 11.9446C162.87 11.39 164.245 11.1127 165.862 11.1127V14.3362C165.677 14.3131 165.423 14.3016 165.1 14.3016C163.297 14.3016 161.876 14.8446 160.836 15.9307C159.819 16.9936 159.311 18.5188 159.311 20.506V29.6567H155.984V11.286H159.172V14.3709Z" fill="#83898F"/>
<path d="M50.917 41.0902V49.5476H63.0833V52.5286H50.917V62.3378H47.4508V38.0746H64.5737V41.0902H50.917Z" fill="#83898F"/>
<path d="M73.9744 43.7938C76.5162 43.7938 78.4573 44.4177 79.7976 45.6655C81.1609 46.9134 81.8426 48.7735 81.8426 51.2461V62.3378H78.6884V59.9115C78.1338 60.7665 77.3366 61.4251 76.2967 61.8872C75.28 62.3263 74.0668 62.5458 72.6572 62.5458C70.6006 62.5458 68.9484 62.049 67.7006 61.0554C66.4759 60.0617 65.8635 58.7561 65.8635 57.1386C65.8635 55.521 66.4528 54.227 67.6313 53.2565C68.8098 52.2628 70.6815 51.766 73.2465 51.766H78.5151V51.1074C78.5151 49.6747 78.0991 48.5771 77.2672 47.8146C76.4354 47.052 75.2107 46.6707 73.5931 46.6707C72.507 46.6707 71.4441 46.8556 70.4042 47.2253C69.3644 47.5719 68.4863 48.0456 67.7699 48.6464L66.3835 46.1508C67.3309 45.3882 68.4632 44.8105 69.7803 44.4177C71.0975 44.0018 72.4955 43.7938 73.9744 43.7938ZM73.2118 59.9808C74.4828 59.9808 75.5804 59.7035 76.5047 59.149C77.429 58.5713 78.0991 57.7625 78.5151 56.7226V54.1577H73.3851C70.566 54.1577 69.1564 55.1051 69.1564 56.9999C69.1564 57.9242 69.5146 58.6521 70.2309 59.1836C70.9473 59.7151 71.9409 59.9808 73.2118 59.9808Z" fill="#83898F"/>
<path d="M102.879 43.9671L94.837 62.3378H91.4401L83.3986 43.9671H86.8648L93.1732 58.6984L99.6203 43.9671H102.879Z" fill="#83898F"/>
</svg>
