<svg width="132" height="47" viewBox="0 0 132 47" fill="none" xmlns="http://www.w3.org/2000/svg">
<rect width="32" height="31" fill="#1AA090"/>
<path d="M15.7976 38V9.63636H26.4339C28.6129 9.63636 30.4411 10.0149 31.9183 10.772C33.4048 11.5291 34.5266 12.5909 35.2837 13.9574C36.0501 15.3146 36.4332 16.8981 36.4332 18.7077C36.4332 20.5266 36.0455 22.1055 35.2699 23.4442C34.5036 24.7738 33.3725 25.8033 31.8768 26.5327C30.381 27.2528 28.5437 27.6129 26.3647 27.6129H18.7891V23.3473H25.6722C26.9464 23.3473 27.9897 23.1719 28.8022 22.821C29.6147 22.4609 30.2148 21.9393 30.6026 21.256C30.9996 20.5636 31.1982 19.7141 31.1982 18.7077C31.1982 17.7013 30.9996 16.8427 30.6026 16.1317C30.2056 15.4116 29.6009 14.8668 28.7884 14.4975C27.9759 14.119 26.9279 13.9297 25.6445 13.9297H20.9357V38H15.7976ZM30.4503 25.1477L37.4719 38H31.7383L24.8413 25.1477H30.4503ZM50.0542 38.4155C47.9213 38.4155 46.0794 37.9723 44.5282 37.0859C42.9863 36.1903 41.7999 34.9254 40.9689 33.2912C40.138 31.6477 39.7225 29.7134 39.7225 27.4883C39.7225 25.3001 40.138 23.3796 40.9689 21.7269C41.8091 20.065 42.9817 18.7724 44.4867 17.8491C45.9917 16.9165 47.7598 16.4503 49.791 16.4503C51.1021 16.4503 52.3393 16.6626 53.5027 17.0874C54.6752 17.5028 55.7093 18.1491 56.6049 19.0263C57.5098 19.9034 58.2207 21.0206 58.7377 22.3778C59.2548 23.7259 59.5133 25.3324 59.5133 27.1974V28.7347H42.0769V25.3555H54.7076C54.6983 24.3952 54.4906 23.5412 54.0843 22.7933C53.6781 22.0362 53.1103 21.4407 52.3809 21.0067C51.6607 20.5728 50.8205 20.3558 49.8603 20.3558C48.8354 20.3558 47.9352 20.6051 47.1596 21.1037C46.3841 21.593 45.7793 22.2393 45.3453 23.0426C44.9206 23.8366 44.7037 24.7092 44.6944 25.6602V28.6101C44.6944 29.8473 44.9206 30.9091 45.373 31.7955C45.8255 32.6726 46.4579 33.3466 47.2704 33.8175C48.0829 34.2791 49.0339 34.5099 50.1234 34.5099C50.8528 34.5099 51.513 34.4084 52.1039 34.2053C52.6948 33.9929 53.2072 33.6836 53.6412 33.2773C54.0751 32.8711 54.4029 32.3679 54.6245 31.7678L59.3056 32.294C59.0101 33.5312 58.4469 34.6115 57.6159 35.5348C56.7942 36.4489 55.7417 37.1598 54.4583 37.6676C53.1749 38.1662 51.7069 38.4155 50.0542 38.4155ZM68.7682 25.5355V38H63.7547V16.7273H68.5466V20.342H68.7959C69.2852 19.1509 70.0654 18.2045 71.1365 17.5028C72.2167 16.8011 73.5509 16.4503 75.1389 16.4503C76.607 16.4503 77.8857 16.7642 78.9752 17.392C80.074 18.0199 80.9234 18.9293 81.5235 20.1204C82.1329 21.3114 82.433 22.7564 82.4237 24.4553V38H77.4102V25.2308C77.4102 23.8089 77.0409 22.6964 76.3023 21.8931C75.5729 21.0898 74.5619 20.6882 73.2693 20.6882C72.3921 20.6882 71.6119 20.8821 70.9287 21.2699C70.2547 21.6484 69.7238 22.1978 69.336 22.918C68.9575 23.6381 68.7682 24.5107 68.7682 25.5355ZM98.1428 16.7273V20.6051H85.9138V16.7273H98.1428ZM88.933 11.6307H93.9465V31.6016C93.9465 32.2756 94.048 32.7926 94.2512 33.1527C94.4635 33.5036 94.7405 33.7436 95.0821 33.8729C95.4237 34.0021 95.8023 34.0668 96.2178 34.0668C96.5317 34.0668 96.8179 34.0437 97.0764 33.9975C97.3442 33.9513 97.5473 33.9098 97.6858 33.8729L98.5306 37.7923C98.2629 37.8846 97.8797 37.9862 97.3811 38.0969C96.8918 38.2077 96.2916 38.2724 95.5807 38.2908C94.325 38.3278 93.194 38.1385 92.1876 37.723C91.1812 37.2983 90.3825 36.6428 89.7916 35.7564C89.21 34.87 88.9237 33.7621 88.933 32.4325V11.6307ZM102.336 38V16.7273H107.349V38H102.336ZM104.856 13.7081C104.062 13.7081 103.379 13.445 102.807 12.9187C102.234 12.3832 101.948 11.7415 101.948 10.9936C101.948 10.2365 102.234 9.59481 102.807 9.06854C103.379 8.53302 104.062 8.26527 104.856 8.26527C105.66 8.26527 106.343 8.53302 106.906 9.06854C107.479 9.59481 107.765 10.2365 107.765 10.9936C107.765 11.7415 107.479 12.3832 106.906 12.9187C106.343 13.445 105.66 13.7081 104.856 13.7081ZM112.228 38V34.8146L123.196 21.0621V20.8821H112.588V16.7273H129.332V20.1481L118.889 33.6651V33.8452H129.692V38H112.228Z" fill="white"/>
</svg>
