<svg width="181" height="48" viewBox="0 0 181 48" fill="none" xmlns="http://www.w3.org/2000/svg">
<path d="M22.6548 27.0569C22.4827 29.4351 21.6023 31.3072 20.0135 32.6734C18.4348 34.0396 16.3501 34.7227 13.7594 34.7227C10.9258 34.7227 8.69441 33.7714 7.06511 31.8689C5.44593 29.9562 4.63634 27.3352 4.63634 24.0058V22.6548C4.63634 20.5296 5.01078 18.6574 5.75965 17.0382C6.50852 15.4191 7.57616 14.1794 8.96258 13.3192C10.3591 12.4489 11.9783 12.0137 13.8201 12.0137C16.3703 12.0137 18.4247 12.6968 19.9831 14.063C21.5416 15.4292 22.4422 17.3469 22.6851 19.8161H18.1312C18.0199 18.3892 17.6201 17.357 16.932 16.7195C16.2539 16.0718 15.2167 15.748 13.8201 15.748C12.3021 15.748 11.1637 16.2944 10.4047 17.3874C9.65579 18.4702 9.27124 20.1552 9.251 22.4422V24.112C9.251 26.5003 9.61025 28.246 10.3288 29.349C11.0574 30.4521 12.2009 31.0036 13.7594 31.0036C15.1661 31.0036 16.2135 30.6849 16.9016 30.0473C17.5999 29.3996 17.9996 28.4028 18.1008 27.0569H22.6548Z" fill="#83898F"/>
<path d="M45.1603 24.8406H36.4168V30.7608H46.6783V34.4191H31.8628V12.3173H46.6479V16.006H36.4168V21.2734H45.1603V24.8406Z" fill="#83898F"/>
<path d="M68.0454 29.8652H60.0608L58.5428 34.4191H53.7005L61.9279 12.3173H66.1479L74.4209 34.4191H69.5785L68.0454 29.8652ZM61.2904 26.1765H66.8158L64.0379 17.9035L61.2904 26.1765Z" fill="#83898F"/>
<path d="M97.5185 16.006H90.7483V34.4191H86.1943V16.006H79.5152V12.3173H97.5185V16.006Z" fill="#83898F"/>
<path d="M124.335 34.4191H119.781V24.9469H110.901V34.4191H106.347V12.3173H110.901V21.2734H119.781V12.3173H124.335V34.4191Z" fill="#83898F"/>
<path d="M147.842 24.8406H139.099V30.7608H149.36V34.4191H134.545V12.3173H149.33V16.006H139.099V21.2734H147.842V24.8406Z" fill="#83898F"/>
<path d="M169.711 28.6204C169.711 27.7602 169.407 27.1024 168.8 26.647C168.193 26.1815 167.1 25.6958 165.521 25.1898C163.942 24.6737 162.692 24.1677 161.771 23.6718C159.262 22.3157 158.007 20.4891 158.007 18.1919C158.007 16.9978 158.341 15.9352 159.009 15.0041C159.687 14.063 160.653 13.3293 161.908 12.8031C163.173 12.2768 164.59 12.0137 166.158 12.0137C167.737 12.0137 169.144 12.3021 170.378 12.879C171.613 13.4457 172.569 14.2502 173.247 15.2926C173.936 16.3349 174.28 17.5189 174.28 18.8446H169.726C169.726 17.8326 169.407 17.0484 168.769 16.4918C168.132 15.925 167.236 15.6417 166.083 15.6417C164.969 15.6417 164.104 15.8795 163.487 16.3551C162.869 16.8207 162.561 17.438 162.561 18.2071C162.561 18.9256 162.92 19.5277 163.639 20.0135C164.367 20.4992 165.435 20.9546 166.842 21.3797C169.432 22.1589 171.32 23.1253 172.504 24.279C173.688 25.4327 174.28 26.8697 174.28 28.5901C174.28 30.5027 173.556 32.0055 172.109 33.0985C170.662 34.1813 168.714 34.7227 166.265 34.7227C164.565 34.7227 163.016 34.414 161.62 33.7967C160.223 33.1693 159.156 32.3142 158.417 31.2313C157.688 30.1485 157.324 28.8937 157.324 27.4668H161.893C161.893 29.9056 163.35 31.1251 166.265 31.1251C167.348 31.1251 168.193 30.9075 168.8 30.4724C169.407 30.0271 169.711 29.4098 169.711 28.6204Z" fill="#83898F"/>
<path d="M0 0H180.978V2.22059H0V0Z" fill="#83898F"/>
<path d="M0 45.522H180.978V47.7426H0V45.522Z" fill="#83898F"/>
</svg>
