<svg width="136" height="33" viewBox="0 0 136 33" fill="none" xmlns="http://www.w3.org/2000/svg">
<path d="M23.8558 1.81183H18.4755L11.9874 18.651L5.49944 1.81183H0.198242L11.9874 32.3838L23.8558 1.81183Z" fill="#83898F"/>
<path d="M35.8038 1.81183H30.8191V32.3838H35.8038V1.81183Z" fill="#83898F"/>
<path d="M53.6852 24.5365C59.6985 24.5365 64.6832 19.4684 64.6832 13.1741C64.6832 6.96165 59.7776 1.81183 53.6852 1.81183C47.5928 1.81183 42.6873 6.96165 42.6873 13.1741C42.6873 19.4684 47.6719 24.5365 53.6852 24.5365ZM53.6852 6.87991C57.0875 6.87991 59.7776 9.65918 59.7776 13.1741C59.7776 16.6891 57.0875 19.4684 53.6852 19.4684C50.283 19.4684 47.5928 16.6891 47.5928 13.1741C47.5928 9.65918 50.283 6.87991 53.6852 6.87991Z" fill="#83898F"/>
<path d="M63.3374 27.3155H43.7942V32.3836H63.3374V27.3155Z" fill="#83898F"/>
<path d="M87.4697 27.3158H76.5508V1.81183H71.6453V32.3838H87.4697V27.3158Z" fill="#83898F"/>
<path d="M114.529 27.3158H99.7327V19.6319H111.997V14.5638H99.7327V6.96165H114.529V1.81183H94.748V32.3838H114.529V27.3158Z" fill="#83898F"/>
<path d="M125.447 32.3838H130.353V6.96165H135.258V1.81183H120.463V6.96165H125.447V32.3838Z" fill="#83898F"/>
<path d="M53.6849 25.8442C60.4103 25.8442 65.8697 20.204 65.8697 13.2558C65.8697 6.30759 60.4103 0.667297 53.6849 0.667297C46.9595 0.667297 41.5001 6.30759 41.5001 13.2558C41.421 20.204 46.9595 25.8442 53.6849 25.8442ZM53.6849 1.32125C60.0938 1.32125 65.2367 6.63457 65.2367 13.2558C65.2367 19.7952 60.0938 25.1903 53.6849 25.1903C47.276 25.1903 42.1331 19.877 42.1331 13.2558C42.1331 6.63457 47.276 1.32125 53.6849 1.32125Z" fill="#83898F"/>
</svg>
