<svg width="184" height="41" viewBox="0 0 184 41" fill="none" xmlns="http://www.w3.org/2000/svg">
<rect x="89.9336" y="0.619446" width="93.2647" height="39.9706" rx="1" fill="#83898F"/>
<path d="M0 9.84777H4.34551L8.96262 23.3954C10.3885 18.9033 13.8513 9.13474 15.1414 6.71042C17.1105 2.93134 20.5733 1.22006 24.8509 1.86179L24.3756 6.14C21.7276 5.71218 19.8943 6.56782 18.8079 8.84952C16.6352 12.9138 11.2033 30.6684 11.1354 30.811L10.8638 31.0249L7.33305 31.0962L0 9.84777Z" fill="#83898F"/>
<path d="M27.2953 13.27H24.5793V9.41962H34.2889V13.27H31.3692V26.675H27.2953V13.27ZM24.5793 27.3168H34.2889V31.1672H24.5793V27.3168Z" fill="#83898F"/>
<path d="M42.5737 9.84747H46.7834L53.3017 22.3969V9.84747H57.3757V31.0246L57.104 31.1672H53.1659L46.6477 18.5465V31.1672H42.5737V9.84747Z" fill="#83898F"/>
<path d="M165.105 26.8983V23.6183H171.216V19.3401H158.587V23.6183H160.963V31.1765H174.271V26.8983H165.105Z" fill="#121B25"/>
<path d="M165.105 13.7795H173.66V9.50134H160.963V18.5569H165.105V13.7795Z" fill="#121B25"/>
<path d="M102.774 14.1351H96.5955V9.78558H113.027V14.1351H106.848V31.1766H102.706V14.1351H102.774Z" fill="#121B25"/>
<path d="M78.2208 18.4034H62.4683V22.539H78.2208V18.4034Z" fill="#83898F"/>
<path d="M145.482 21.1953V25.0457H150.099C149.012 26.1866 147.654 26.8996 146.025 26.8996C142.698 26.8996 139.982 24.0475 139.982 20.5536C139.982 17.0597 142.698 14.2076 146.025 14.2076C148.333 14.2076 150.438 15.5624 151.457 17.7728L155.055 15.705C153.29 12.1398 149.827 9.92938 146.025 9.92938C140.389 9.92938 135.908 14.7067 135.908 20.5536C135.908 26.4005 140.457 31.2491 146.025 31.2491C149.895 31.2491 153.494 29.1813 155.123 25.117V21.2666H145.482V21.1953Z" fill="#121B25"/>
<path d="M126.131 10.0714L122.329 10.1427C122.329 10.1427 117.508 25.9007 115.132 31.3198H117.508H119.613H129.051H130.341H131.767H133.396L126.131 10.0714ZM121.039 27.4694C122.329 23.9755 123.619 20.1251 124.366 17.7721L127.693 27.4694H121.039Z" fill="#121B25"/>
</svg>
