<svg width="16" height="15" viewBox="0 0 16 15" fill="none" xmlns="http://www.w3.org/2000/svg">
<path opacity="0.6" fill-rule="evenodd" clip-rule="evenodd" d="M15.2223 5.84992L14.0826 6.48092C14.1465 6.81222 14.1885 7.15072 14.1885 7.50011C14.1885 7.84934 14.1465 8.18784 14.0826 8.51916L15.2223 9.15011C15.688 9.40783 15.8474 9.97861 15.5787 10.425L14.6052 12.0417C14.3365 12.488 13.7411 12.641 13.2756 12.3833L12.1241 11.7459C11.5861 12.1849 10.9746 12.5439 10.2948 12.7747V13.5666C10.2948 14.0821 9.85904 14.5 9.32136 14.5H7.37455C6.83704 14.5 6.40125 14.0821 6.40125 13.5666V12.7747C5.72151 12.5439 5.10995 12.1849 4.57192 11.7459L3.4205 12.3833C2.95488 12.641 2.35955 12.488 2.09076 12.0417L1.11738 10.425C0.848597 9.97861 1.00812 9.40783 1.47367 9.15011L2.61343 8.51916C2.54954 8.18784 2.50759 7.84934 2.50759 7.50011C2.50759 7.15072 2.54954 6.81222 2.61343 6.48092L1.47367 5.84992C1.00812 5.59223 0.848597 5.02132 1.11738 4.57504L2.09076 2.95842C2.35955 2.51196 2.95488 2.35894 3.4205 2.61677L4.57192 3.25421C5.10995 2.81499 5.72151 2.45618 6.40125 2.22547V1.43341C6.40125 0.917987 6.83704 0.500092 7.37455 0.500092H9.32136C9.85904 0.500092 10.2948 0.917987 10.2948 1.43341V2.22547C10.9746 2.45618 11.5861 2.81499 12.1241 3.25421L13.2756 2.61677C13.7411 2.35894 14.3365 2.51196 14.6052 2.95842L15.5787 4.57504C15.8474 5.02132 15.688 5.59223 15.2223 5.84992ZM14.4923 4.63746L14.0056 3.82913C13.8712 3.60606 13.5735 3.52944 13.3408 3.65837L11.9885 4.40701C11.3021 3.66462 10.3745 3.13208 9.32136 2.9271V1.90004C9.32136 1.6423 9.10347 1.43341 8.83469 1.43341H7.8613C7.59243 1.43341 7.37455 1.6423 7.37455 1.90004V2.9271C6.32149 3.13208 5.39392 3.66462 4.70759 4.40701L3.3553 3.65837C3.12248 3.52944 2.82483 3.60606 2.69039 3.82913L2.20378 4.63746C2.06934 4.86068 2.14911 5.1462 2.38183 5.27499L3.73957 6.02659C3.57784 6.49078 3.48096 6.98356 3.48096 7.50011C3.48096 8.01652 3.57784 8.50924 3.73957 8.97354L2.38183 9.72507C2.14911 9.85402 2.06934 10.1394 2.20378 10.3626L2.69039 11.1708C2.82483 11.394 3.12248 11.4705 3.3553 11.3416L4.70751 10.5931C5.39392 11.3355 6.32149 11.868 7.37455 12.073V13.1001C7.37455 13.3578 7.59243 13.5666 7.8613 13.5666H8.83469C9.10347 13.5666 9.32136 13.3578 9.32136 13.1001V12.073C10.3745 11.868 11.3021 11.3355 11.9885 10.5931L13.3408 11.3416C13.5735 11.4705 13.8712 11.394 14.0056 11.1708L14.4923 10.3626C14.6267 10.1394 14.5469 9.85402 14.3142 9.72507L12.9564 8.97354C13.1182 8.50924 13.215 8.01652 13.215 7.50011C13.215 6.98356 13.1182 6.49078 12.9564 6.02659L14.3142 5.27499C14.5469 5.1462 14.6267 4.86068 14.4923 4.63746ZM8.348 9.83328C7.00395 9.83328 5.91449 8.78867 5.91449 7.50011C5.91449 6.21127 7.00395 5.16666 8.348 5.16666C9.69196 5.16666 10.7815 6.21127 10.7815 7.50011C10.7815 8.78867 9.69196 9.83328 8.348 9.83328ZM8.348 6.10002C7.54163 6.10002 6.88794 6.72683 6.88794 7.50011C6.88794 8.2732 7.54163 8.89991 8.348 8.89991C9.15437 8.89991 9.80806 8.2732 9.80806 7.50011C9.80806 6.72683 9.15437 6.10002 8.348 6.10002Z" fill="white"/>
</svg>
