<svg width="18" height="17" viewBox="0 0 18 17" fill="none" xmlns="http://www.w3.org/2000/svg">
<path opacity="0.5" fill-rule="evenodd" clip-rule="evenodd" d="M9.17784 14.4999C8.63982 14.4999 8.11531 14.4537 7.60537 14.3734L3.91977 16.5001V12.9596C1.99813 11.6767 0.764832 9.70951 0.764832 7.49994C0.764832 3.63404 4.53151 0.499969 9.17784 0.499969C13.8243 0.499969 17.5909 3.63404 17.5909 7.49994C17.5909 11.3661 13.8243 14.4999 9.17784 14.4999ZM9.17784 1.50014C5.11228 1.50014 1.81647 4.18641 1.81647 7.49994C1.81647 9.53322 3.06038 11.3268 4.95834 12.4121L4.92518 14.7313L7.40046 13.3165C7.97061 13.432 8.56382 13.5 9.17784 13.5C13.2434 13.5 16.5393 10.8138 16.5393 7.49994C16.5393 4.18641 13.2434 1.50014 9.17784 1.50014ZM12.8585 7.00002H5.49716C5.20677 7.00002 4.97133 6.77605 4.97133 6.50005C4.97133 6.22379 5.20677 6 5.49716 6H12.8585C13.1489 6 13.3844 6.22379 13.3844 6.50005C13.3844 6.77605 13.1489 7.00002 12.8585 7.00002ZM6.5488 9.00002H11.8069C12.0973 9.00002 12.3328 9.22385 12.3328 9.49999C12.3328 9.77627 12.0973 10.0001 11.8069 10.0001H6.5488C6.25835 10.0001 6.02298 9.77627 6.02298 9.49999C6.02298 9.22385 6.25835 9.00002 6.5488 9.00002Z" fill="white"/>
</svg>
