<svg width="14" height="14" viewBox="0 0 14 14" fill="none" xmlns="http://www.w3.org/2000/svg">
<path opacity="0.8" fill-rule="evenodd" clip-rule="evenodd" d="M13 7.99987H7.99998V13.0002C7.99998 13.5521 7.5523 14 7.00005 14C6.4478 14 6.00003 13.5521 6.00003 13.0002V7.99987H1.00007C0.447746 7.99987 -3.3021e-05 7.55226 -3.3021e-05 7.00003C-3.3021e-05 6.44785 0.447746 6.0001 1.00007 6.0001H6.00003V0.99994C6.00003 0.447715 6.4478 1.00136e-05 7.00005 1.00136e-05C7.5523 1.00136e-05 7.99998 0.447715 7.99998 0.99994V6.0001H13C13.5523 6.0001 14 6.44785 14 7.00003C14 7.55226 13.5523 7.99987 13 7.99987Z" fill="white"/>
</svg>
